HIERARCHY
ROOT Hips
{
	OFFSET 0.000000 0.000000 0.000000
	CHANNELS 6 Xposition Yposition Zposition Zrotation Yrotation Xrotation 
	JOINT LowerBack
	{
		OFFSET 0.000000 0.000000 0.000000
		CHANNELS 3 Zrotation Yrotation Xrotation
		JOINT Spine
		{
			OFFSET 0.028270 2.035590 -0.193380
			CHANNELS 3 Zrotation Yrotation Xrotation
			JOINT Spine1
			{
				OFFSET 0.056720 2.048850 -0.042750
				CHANNELS 3 Zrotation Yrotation Xrotation
				JOINT Neck
				{
					OFFSET 0.000000 0.000000 0.000000
					CHANNELS 3 Zrotation Yrotation Xrotation
					JOINT Neck1
					{
						OFFSET -0.054170 1.746240 0.172020
						CHANNELS 3 Zrotation Yrotation Xrotation
						JOINT Head
						{
							OFFSET 0.104070 1.761360 -0.123970
							CHANNELS 3 Zrotation Yrotation Xrotation
							End Site
							{
								OFFSET 0.000000 0.000000 0.000000
							}
						}
					}
				}
				JOINT LeftShoulder
				{
					OFFSET 0.000000 0.000000 0.000000
					CHANNELS 3 Zrotation Yrotation Xrotation
					JOINT LeftArm
					{
						OFFSET 3.362410 1.200890 -0.311210
						CHANNELS 3 Zrotation Yrotation Xrotation
						JOINT LeftForeArm
						{
							OFFSET 4.983000 -0.000000 -0.000000
							CHANNELS 3 Zrotation Yrotation Xrotation
							JOINT LeftHand
							{
								OFFSET 3.483560 -0.000000 -0.000000
								CHANNELS 3 Zrotation Yrotation Xrotation
								JOINT LeftFingerBase
								{
									OFFSET 0.000000 0.000000 0.000000
									CHANNELS 3 Zrotation Yrotation Xrotation
									JOINT LeftHandIndex1
									{
										OFFSET 0.715260 -0.000000 -0.000000
										CHANNELS 3 Zrotation Yrotation Xrotation
										End Site
										{
											OFFSET 0.000000 0.000000 0.000000
										}
									}
								}
								JOINT LThumb
								{
									OFFSET 0.000000 0.000000 0.000000
									CHANNELS 3 Zrotation Yrotation Xrotation
									End Site
									{
										OFFSET 0.000000 0.000000 0.000000
									}
								}
							}
						}
					}
				}
				JOINT RightShoulder
				{
					OFFSET 0.000000 0.000000 0.000000
					CHANNELS 3 Zrotation Yrotation Xrotation
					JOINT RightArm
					{
						OFFSET -3.136600 1.374050 -0.404650
						CHANNELS 3 Zrotation Yrotation Xrotation
						JOINT RightForeArm
						{
							OFFSET -5.241900 -0.000000 -0.000000
							CHANNELS 3 Zrotation Yrotation Xrotation
							JOINT RightHand
							{
								OFFSET -3.444170 -0.000000 -0.000000
								CHANNELS 3 Zrotation Yrotation Xrotation
								JOINT RightFingerBase
								{
									OFFSET 0.000000 0.000000 0.000000
									CHANNELS 3 Zrotation Yrotation Xrotation
									JOINT RightHandIndex1
									{
										OFFSET -0.622530 -0.000000 -0.000000
										CHANNELS 3 Zrotation Yrotation Xrotation
										End Site
										{
											OFFSET 0.000000 0.000000 0.000000
										}
									}
								}
								JOINT RThumb
								{
									OFFSET 0.000000 0.000000 0.000000
									CHANNELS 3 Zrotation Yrotation Xrotation
									End Site
									{
										OFFSET 0.000000 0.000000 0.000000
									}
								}
							}
						}
					}
				}
			}
		}
	}
}
}
MOTION
Frames: 14
Frame Time: 0.008333
8.749439 17.367070 3.259915 -171.376926 -85.694096 -175.739851 -0.422547 -1.772172 1.558002 -1.045890 -1.762173 -2.653778 -7.975705 -1.829712 0.268721 11.776708 -2.435815 -2.737587 -4.195955 -0.346845 1.187627 0.000000 0.000000 0.000000 -5.149561 -0.525955 2.645698 -52.087287 -22.879903 16.926568 -3.378604 -36.421517 -0.006557 4.425297 -0.662388 -0.030967 -0.161567 0.141104 0.000000 0.000000 0.000000 0.000000 0.000000 0.000000 0.000000 19.608253 -1.963547 1.227141 64.084534 3.168447 1.331075 3.542087 22.635924 0.008584 5.063059 4.461831 0.197502 0.053902 -0.043084 0.000000 0.000000 0.000000 0.000000 0.000000 0.000000 0.000000 
8.611731 17.352738 3.256029 -172.209737 -85.769768 -174.960507 -0.346282 -1.900522 1.520085 -1.020129 -1.895149 -2.636379 -7.950153 -1.955883 0.322209 11.801258 -2.817144 -2.795648 -4.164631 -0.344473 1.176101 0.000000 0.000000 0.000000 -4.882613 -0.660792 2.620288 -51.647643 -23.703877 16.849479 -3.315444 -37.259733 -0.007462 4.613086 -0.726308 -0.035236 -0.164068 0.149999 0.000000 0.000000 0.000000 0.000000 0.000000 0.000000 0.000000 19.535451 -2.404727 1.214728 63.888967 2.623164 1.507439 3.551012 23.062166 0.008415 5.172911 4.400729 0.198896 0.054443 -0.040583 0.000000 0.000000 0.000000 0.000000 0.000000 0.000000 0.000000 
8.473904 17.336415 3.250231 -173.483234 -85.864971 -173.736191 -0.307103 -2.033961 1.482038 -1.002161 -2.031322 -2.617063 -7.922613 -2.084925 0.382522 11.831699 -3.232062 -2.865193 -4.133643 -0.342045 1.161252 0.000000 0.000000 0.000000 -4.603355 -0.786612 2.591139 -51.183601 -24.506434 16.758320 -3.250278 -38.084263 -0.008394 4.771616 -0.770164 -0.038708 -0.166227 0.158754 0.000000 0.000000 0.000000 0.000000 0.000000 0.000000 0.000000 19.476161 -2.882005 1.200418 63.680801 2.122524 1.700426 3.558199 23.504700 0.008242 5.284637 4.339950 0.200391 0.054958 -0.038160 0.000000 0.000000 0.000000 0.000000 0.000000 0.000000 0.000000 
8.335786 17.318074 3.242591 -175.203962 -85.982166 -172.057331 -0.299787 -2.171848 1.439466 -0.991059 -2.170588 -2.599309 -7.892705 -2.217325 0.440022 11.865546 -3.641669 -2.932545 -4.102616 -0.339665 1.146883 0.000000 0.000000 0.000000 -4.311326 -0.918974 2.561764 -50.700806 -25.261731 16.649324 -3.183034 -38.902666 -0.009340 4.898647 -0.792656 -0.041183 -0.167986 0.167371 0.000000 0.000000 0.000000 0.000000 0.000000 0.000000 0.000000 19.419683 -3.353914 1.184968 63.477432 1.607947 1.818126 3.562896 23.987138 0.008058 5.412586 4.269355 0.201786 0.055294 -0.035851 0.000000 0.000000 0.000000 0.000000 0.000000 0.000000 0.000000 
8.197494 17.297681 3.233195 -177.422467 -86.119654 -169.878450 -0.321914 -2.314511 1.398781 -0.986287 -2.313174 -2.580098 -7.859076 -2.352880 0.501234 11.899960 -4.074707 -3.006963 -4.070575 -0.337176 1.130448 0.000000 0.000000 0.000000 -4.007610 -1.048438 2.528680 -50.205658 -25.986083 16.526763 -3.113544 -39.706918 -0.010274 4.995037 -0.798627 -0.042560 -0.169287 0.175804 0.000000 0.000000 0.000000 0.000000 0.000000 0.000000 0.000000 19.362951 -3.851235 1.167489 63.275954 1.124240 1.911925 3.565131 24.480885 0.007889 5.527665 4.209655 0.203182 0.055662 -0.033749 0.000000 0.000000 0.000000 0.000000 0.000000 0.000000 0.000000 
8.059018 17.275241 3.222150 179.820122 -86.275843 -167.162269 -0.368923 -2.461884 1.364109 -0.986991 -2.459170 -2.558869 -7.820965 -2.491685 0.565282 11.932154 -4.528985 -3.087277 -4.036948 -0.334539 1.112245 0.000000 0.000000 0.000000 -3.691724 -1.176047 2.491410 -49.705455 -26.677873 16.390054 -3.041661 -40.496204 -0.011183 5.063225 -0.790883 -0.043241 -0.170091 0.184051 0.000000 0.000000 0.000000 0.000000 0.000000 0.000000 0.000000 19.300052 -4.371687 1.148040 63.082039 0.670625 1.973470 3.564549 24.980541 0.007751 5.620015 4.168382 0.204480 0.056105 -0.031919 0.000000 0.000000 0.000000 0.000000 0.000000 0.000000 0.000000 
7.920352 17.250827 3.209538 176.495887 -86.447043 -163.884470 -0.434557 -2.613071 1.339241 -0.992073 -2.607960 -2.536313 -7.778373 -2.633380 0.627017 11.959714 -4.984316 -3.166425 -4.001650 -0.331806 1.094159 0.000000 0.000000 0.000000 -3.364064 -1.309176 2.451370 -49.205882 -27.324113 16.234058 -2.967375 -41.274225 -0.012061 5.106730 -0.771511 -0.043023 -0.170380 0.192123 0.000000 0.000000 0.000000 0.000000 0.000000 0.000000 0.000000 19.224797 -4.893586 1.127443 62.904593 0.220093 1.963933 3.560663 25.494530 0.007648 5.691790 4.144995 0.205878 0.056573 -0.030403 0.000000 0.000000 0.000000 0.000000 0.000000 0.000000 0.000000 
7.781452 17.224504 3.195455 172.618904 -86.628440 -160.061471 -0.509858 -2.766893 1.326353 -0.999710 -2.758825 -2.512644 -7.731790 -2.777374 0.684438 11.980881 -5.431693 -3.241611 -3.964912 -0.329008 1.076950 0.000000 0.000000 0.000000 -3.026321 -1.448956 2.408903 -48.711436 -27.921169 16.058321 -2.890872 -42.041861 -0.012905 5.129938 -0.742904 -0.042209 -0.170168 0.200027 0.000000 0.000000 0.000000 0.000000 0.000000 0.000000 0.000000 19.134944 -5.406914 1.106036 62.748145 -0.239210 1.867276 3.553242 26.026545 0.007586 5.742373 4.139172 0.207378 0.057054 -0.029222 0.000000 0.000000 0.000000 0.000000 0.000000 0.000000 0.000000 
7.642264 17.196469 3.180056 168.239823 -86.808583 -155.748028 -0.587819 -2.921275 1.331966 -1.008026 -2.909784 -2.484699 -7.680988 -2.921325 0.744808 11.994345 -5.899841 -3.322862 -3.926321 -0.326008 1.057835 0.000000 0.000000 0.000000 -2.683251 -1.580881 2.360398 -48.225723 -28.487354 15.864978 -2.812083 -42.792408 -0.013710 5.138651 -0.710787 -0.041198 -0.169450 0.207741 0.000000 0.000000 0.000000 0.000000 0.000000 0.000000 0.000000 19.032027 -5.941641 1.083412 62.602249 -0.656586 1.754624 3.542710 26.545053 0.007597 5.745168 4.172849 0.209080 0.057751 -0.028441 0.000000 0.000000 0.000000 0.000000 0.000000 0.000000 0.000000 
7.502858 17.166879 3.163432 163.489392 -86.976303 -151.076767 -0.660119 -3.072419 1.354816 -1.014988 -3.057481 -2.454236 -7.627496 -3.062280 0.802934 11.999965 -6.365915 -3.403277 -3.886823 -0.322928 1.038722 0.000000 0.000000 0.000000 -2.338574 -1.708747 2.307806 -47.750221 -29.010755 15.651632 -2.731419 -43.530528 -0.014480 5.137229 -0.676052 -0.039891 -0.168268 0.215270 0.000000 0.000000 0.000000 0.000000 0.000000 0.000000 0.000000 18.916584 -6.471792 1.060435 62.470691 -1.062866 1.591324 3.528969 27.064662 0.007674 5.711879 4.237642 0.210983 0.058569 -0.028043 0.000000 0.000000 0.000000 0.000000 0.000000 0.000000 0.000000 
7.362965 17.135992 3.145695 158.540017 -87.118552 -146.217455 -0.723407 -3.216373 1.393842 -1.019480 -3.198056 -2.421532 -7.572512 -3.196508 0.858839 11.998111 -6.827175 -3.482917 -3.847084 -0.319806 1.019596 0.000000 0.000000 0.000000 -1.998000 -1.827894 2.251373 -47.285214 -29.492170 15.418965 -2.649391 -44.256790 -0.015221 5.130218 -0.640816 -0.038486 -0.166677 0.222602 0.000000 0.000000 0.000000 0.000000 0.000000 0.000000 0.000000 18.791808 -6.993028 1.037446 62.349461 -1.458158 1.385488 3.512307 27.584171 0.007818 5.643312 4.333362 0.213089 0.059514 -0.028019 0.000000 0.000000 0.000000 0.000000 0.000000 0.000000 0.000000 
7.222535 17.104048 3.126980 153.589745 -87.223130 -141.369761 -0.779335 -3.349987 1.451180 -1.021562 -3.328077 -2.385454 -7.516798 -3.320478 0.915054 11.989724 -7.292183 -3.565763 -3.807529 -0.316623 0.999335 0.000000 0.000000 0.000000 -1.667231 -1.928846 2.190626 -46.830325 -29.941759 15.169767 -2.566631 -44.967170 -0.015935 5.121363 -0.608089 -0.037285 -0.164731 0.229724 -0.000000 0.000000 0.000000 0.000000 0.000000 0.000000 0.000000 18.662472 -7.513245 1.014482 62.231188 -1.822898 1.168385 3.493221 28.092071 0.008036 5.534219 4.464112 0.215196 0.060640 -0.028361 0.000000 0.000000 0.000000 0.000000 0.000000 0.000000 0.000000 
7.081339 17.071308 3.107267 148.788738 -87.288559 -136.675468 -0.829297 -3.472094 1.515479 -1.021729 -3.446625 -2.349732 -7.462098 -3.433652 0.966286 11.976479 -7.736520 -3.644637 -3.769677 -0.313566 0.980027 0.000000 0.000000 0.000000 -1.350422 -2.018371 2.128667 -46.385596 -30.343440 14.904072 -2.484064 -45.668604 -0.016629 5.112671 -0.576581 -0.036084 -0.162520 0.236628 -0.000000 0.000000 0.000000 0.000000 0.000000 0.000000 0.000000 18.533179 -8.006448 0.991833 62.117831 -2.194776 0.905633 3.471861 28.608176 0.008299 5.404467 4.614680 0.217105 0.061809 -0.028987 0.000000 0.000000 0.000000 0.000000 0.000000 0.000000 0.000000 
6.939250 17.037965 3.086684 144.287253 -87.313200 -132.284006 -0.876720 -3.582220 1.587994 -1.021042 -3.553008 -2.313849 -7.409056 -3.535212 1.013385 11.959540 -8.161937 -3.721170 -3.733964 -0.310645 0.961179 0.000000 0.000000 0.000000 -1.051433 -2.092695 2.066281 -45.951390 -30.703023 14.624495 -2.402583 -46.358358 -0.017302 5.105671 -0.547694 -0.034986 -0.160119 0.243308 -0.000000 0.000000 0.000000 0.000000 0.000000 0.000000 0.000000 18.407779 -8.474575 0.969795 62.004724 -2.566112 0.614058 3.448740 29.127516 0.008605 5.256357 4.782410 0.218715 0.063025 -0.029852 0.000000 0.000000 0.000000 0.000000 0.000000 0.000000 0.000000 
